<svg width="26" height="31" viewBox="0 0 26 31" fill="none" xmlns="http://www.w3.org/2000/svg">
<path d="M3.05191e-09 0.00249922C1.02642 -0.00116803 2.05282 0.000283292 3.07852 0.000283292C8.03268 4.49853 12.9818 9.00265 17.936 13.5024C17.941 9.03712 17.9345 4.57042 17.9396 0.102977C20.6248 0.10151 23.3115 0.101498 25.9982 0.104432C26.0011 10.3683 25.9996 20.6322 25.9996 30.8954C25.1173 30.8991 24.2349 30.8954 23.3526 30.8969C18.1845 26.2211 13.0272 21.5337 7.85836 16.8579C7.85764 21.5703 7.85766 26.2842 7.85766 30.9966C5.23868 31.0032 2.61969 30.9981 0.0014288 30.9981C-1.17792e-05 20.6667 3.05191e-09 10.3346 3.05191e-09 0.00249922Z" fill="white"/>
</svg>
